<svg id="Isolation_Mode" data-name="Isolation Mode" xmlns="http://www.w3.org/2000/svg" width="210" height="49.3" viewBox="0 0 210 49.3"><defs><style>.cls-1{fill:#fff;}</style></defs><title>logo-costa-blu</title><path class="cls-1" d="M4.4,24.1A14.2,14.2,0,0,0,0,34.7,14,14,0,0,0,4.4,45.1a15.1,15.1,0,0,0,10.9,4.2,17,17,0,0,0,7.9-2V38.8a16.4,16.4,0,0,1-4.1,3.8,8.2,8.2,0,0,1-4.1,1,7.9,7.9,0,0,1-6-2.5,9.2,9.2,0,0,1-2.3-6.5A9,9,0,0,1,9,28.2a8,8,0,0,1,6.1-2.6,7.7,7.7,0,0,1,4.1,1,15.7,15.7,0,0,1,4,3.7V21.8a16.2,16.2,0,0,0-7.8-2A15,15,0,0,0,4.4,24.1"/><path class="cls-1" d="M41.5,19.8A14.5,14.5,0,0,0,30.9,24a13.9,13.9,0,0,0-4.3,10.3A14.5,14.5,0,0,0,30.8,45a14.2,14.2,0,0,0,10.5,4.3,14.8,14.8,0,0,0,10.7-4.2,14.2,14.2,0,0,0,4.3-10.5,14.2,14.2,0,0,0-4.3-10.5,14.6,14.6,0,0,0-10.6-4.3m6.1,21.4a7.9,7.9,0,0,1-6.1,2.4,7.9,7.9,0,0,1-6.1-2.5,9.4,9.4,0,0,1-2.2-6.6,9,9,0,0,1,2.3-6.4,7.8,7.8,0,0,1,6-2.5,7.9,7.9,0,0,1,6.1,2.5,9.2,9.2,0,0,1,2.3,6.5,9.2,9.2,0,0,1-2.3,6.5"/><path class="cls-1" d="M71.2,30.9q-3.7-1.6-3.7-3.2a2,2,0,0,1,.6-1.5,2.2,2.2,0,0,1,1.5-.6q1.9,0,3.1,2.6l5.3-2.8q-2.6-5.5-8-5.5a8.8,8.8,0,0,0-6.2,2.4,8,8,0,0,0-2.5,6,6.8,6.8,0,0,0,1.5,4.5,12.2,12.2,0,0,0,4,2.8l2,.9,2,.9q2.5,1.5,2.5,3.2t-3.3,3a4,4,0,0,1-2.8-1.1,11.9,11.9,0,0,1-1.8-2.6l-5.5,2.6q2.9,6.9,10,6.9a10.2,10.2,0,0,0,7-2.6,8.8,8.8,0,0,0,3-6.8,7,7,0,0,0-1.8-5q-1.8-1.9-6.9-4.1"/><polygon class="cls-1" points="90.9 10.3 84.4 10.3 84.4 20.5 81.6 20.5 81.6 26.6 84.4 26.6 84.4 48.5 90.9 48.5 90.9 26.6 95.9 26.6 95.9 20.5 90.9 20.5 90.9 10.3"/><path class="cls-1" d="M120,20.5v3.2a11.9,11.9,0,0,0-8.8-4,12.1,12.1,0,0,0-9.4,4.2A15.1,15.1,0,0,0,98,34.5a15.6,15.6,0,0,0,3.8,10.7,12.4,12.4,0,0,0,18.2.5v2.9h6.5v-28Zm-1.8,20.5a7.4,7.4,0,0,1-5.8,2.5,7.1,7.1,0,0,1-5.6-2.6,9.7,9.7,0,0,1-2.2-6.6,9.3,9.3,0,0,1,2.2-6.3,7.1,7.1,0,0,1,5.6-2.5,7.3,7.3,0,0,1,5.7,2.5,9.6,9.6,0,0,1,2.2,6.5,9.6,9.6,0,0,1-2.2,6.5"/><path class="cls-1" d="M154.4,19.8a11.9,11.9,0,0,0-8.8,4V0h-6.5V48.5h6.5V45.6a12.1,12.1,0,0,0,8.7,3.7,12.2,12.2,0,0,0,9.5-4.2,15.4,15.4,0,0,0,3.8-10.7A15.1,15.1,0,0,0,163.8,24a12.1,12.1,0,0,0-9.4-4.2m4.3,21.3a7.1,7.1,0,0,1-5.6,2.5,7.3,7.3,0,0,1-5.7-2.5,9.4,9.4,0,0,1-2.2-6.5,9.3,9.3,0,0,1,2.2-6.4,7.4,7.4,0,0,1,5.8-2.5,7,7,0,0,1,5.5,2.6,9.7,9.7,0,0,1,2.2,6.5,9.2,9.2,0,0,1-2.2,6.3"/><rect class="cls-1" x="172.9" width="6.5" height="48.53"/><path class="cls-1" d="M203.5,20.5V36.6q0,7-5.5,7t-5.5-7V20.5h-6.5V36.8a16,16,0,0,0,.8,5.8,9.9,9.9,0,0,0,2.8,3.9,13.6,13.6,0,0,0,16.6,0,9.7,9.7,0,0,0,2.8-3.9,18,18,0,0,0,.8-5.8V20.5Z"/></svg>