<?xml version="1.0" encoding="utf-8"?>
<!-- Generator: Adobe Illustrator 19.2.1, SVG Export Plug-In . SVG Version: 6.00 Build 0)  -->
<svg version="1.1" id="Layer_1" xmlns="http://www.w3.org/2000/svg" xmlns:xlink="http://www.w3.org/1999/xlink" x="0px" y="0px"
	 width="1037.686px" height="868.451px" viewBox="0 0 1037.686 868.451" enable-background="new 0 0 1037.686 868.451"
	 xml:space="preserve">
<g>
	<path fill="none" stroke="#FFFFFF" stroke-width="4" stroke-miterlimit="10" d="M563.676,291.023L419.395,434.206l144.282,143.188
		c0.224,0.222,0.604,0.064,0.604-0.252v-72.107l-71.426-70.829l71.426-69.925v-73.005C564.281,290.96,563.9,290.801,563.676,291.023
		z"/>
	<path fill="none" stroke="#FFFFFF" stroke-width="4" stroke-miterlimit="10" d="M564.758,290.9l53.534,53.401v74.53l-16.163,15.375
		l16.163,16.952v72.285l-53.58,54.116c-0.158,0.16-0.431,0.048-0.431-0.177v-72.346l18.935-20.204l-52.194-50.625l51.632-50.395
		l-18.373-19.531v-73.182C564.281,290.849,564.582,290.724,564.758,290.9z"/>
	
		<line fill="none" stroke="#FFFFFF" stroke-width="4" stroke-miterlimit="10" x1="492.855" y1="434.206" x2="419.395" y2="434.206"/>
</g>
<g>
</g>
<g>
</g>
<g>
</g>
<g>
</g>
<g>
</g>
<g>
</g>
</svg>
